<svg width="1550" height="181" viewBox="0 0 1550 181" fill="none" xmlns="http://www.w3.org/2000/svg">
<g clip-path="url(#clip0_1_2)">
<path d="M289.333 181H269.635L184.698 12.4552H189.072L289.333 181Z" fill="#222831"/>
<path d="M127.395 128.262H161.942L166.329 181H263.478L178.547 12.4552H152.303L154.503 38.8874H134.837L137.04 12.4552H110.793L25.8557 181H123.008L127.395 128.262ZM133.429 55.7971H155.907L159.482 98.7913H129.848L133.429 55.7971Z" fill="#222831"/>
<path d="M100.265 12.4552H104.636L19.6983 181H3.05176e-05L100.265 12.4552Z" fill="#222831"/>
<path d="M478.853 130.223L503.545 152.64C490.249 167.427 472.917 174.343 454.398 174.343C420.208 174.343 392.667 148.586 392.667 113.768C392.667 78.9488 420.208 52.954 454.398 52.954C472.917 52.954 490.249 59.8701 503.545 74.6561L478.853 97.0736C473.629 84.9109 462.233 82.0491 454.398 82.0491C439.915 82.0491 427.806 94.9273 427.806 113.768C427.806 132.369 439.915 145.247 454.398 145.247C462.233 145.247 473.867 143.101 478.853 130.223ZM545.424 89.4421L519.307 74.4176C532.366 59.6316 549.935 52.7156 568.217 52.7156C603.356 52.7156 617.602 72.0328 617.602 90.1576V172.435H582.463V164.088C577.002 169.811 567.267 174.104 556.346 174.104C524.293 174.104 511.947 159.795 511.947 137.854C511.947 113.052 531.891 96.3582 564.181 96.3582H582.463C582.463 87.5343 575.815 81.8106 565.843 81.8106C555.634 81.8106 550.648 83.7185 545.424 89.4421ZM582.463 133.562V123.068H561.807C552.547 123.068 545.662 129.508 547.086 138.57C548.036 145.009 553.734 147.632 561.807 147.632C577.239 147.632 582.463 138.808 582.463 133.562ZM715.751 56.2928L711.003 82.7646C702.218 78.9488 700.556 79.6643 696.52 79.6643C682.274 79.6643 673.964 87.2958 673.964 106.136V172.435H638.825V54.6234H673.964V65.1167C678.475 57.0083 690.821 52.954 698.656 52.954C706.017 52.954 710.29 53.1925 715.751 56.2928ZM802.504 130.223L827.196 152.64C813.9 167.427 796.568 174.343 778.049 174.343C743.859 174.343 716.318 148.586 716.318 113.768C716.318 78.9488 743.859 52.954 778.049 52.954C796.568 52.954 813.9 59.8701 827.196 74.6561L802.504 97.0736C797.28 84.9109 785.884 82.0491 778.049 82.0491C763.566 82.0491 751.457 94.9273 751.457 113.768C751.457 132.369 763.566 145.247 778.049 145.247C785.884 145.247 797.518 143.101 802.504 130.223ZM897.566 82.0491C883.083 82.0491 870.974 94.9273 870.974 113.768C870.974 132.369 883.083 145.247 897.566 145.247C912.287 145.247 924.396 132.369 924.396 113.768C924.396 94.9273 912.287 82.0491 897.566 82.0491ZM897.566 52.954C931.993 52.954 959.535 78.9488 959.535 113.768C959.535 148.586 931.993 174.343 897.566 174.343C863.377 174.343 835.835 148.586 835.835 113.768C835.835 78.9488 863.377 52.954 897.566 52.954ZM1082.85 105.182V172.435H1047.71V105.182C1047.71 87.2958 1042.96 79.4258 1029.19 79.4258C1014.95 79.4258 1006.64 87.2958 1006.64 105.182V172.435H971.498V54.6234H1006.64V65.8322C1015.66 57.0083 1028.01 52.954 1038.21 52.954C1071.22 52.954 1082.85 68.9325 1082.85 105.182ZM1210.2 105.182V172.435H1175.06V105.182C1175.06 87.2958 1170.32 79.4258 1156.55 79.4258C1142.3 79.4258 1133.99 87.2958 1133.99 105.182V172.435H1098.85V54.6234H1133.99V65.8322C1143.01 57.0083 1155.36 52.954 1165.57 52.954C1198.57 52.954 1210.2 68.9325 1210.2 105.182ZM1345.15 113.768V121.638H1261.58C1261.58 135.47 1275.59 145.247 1287.22 145.247C1298.62 145.247 1309.07 140.716 1314.53 130.7L1338.03 152.402C1328.53 165.28 1314.05 174.343 1287.22 174.343C1248.76 174.343 1225.25 148.586 1225.25 113.768C1225.25 78.9488 1248.05 52.954 1285.09 52.954C1322.12 52.954 1345.15 78.4719 1345.15 113.768ZM1262.29 99.22H1308.35C1306.45 88.0112 1298.38 82.0491 1285.09 82.0491C1272.26 82.0491 1264.43 88.9652 1262.29 99.22ZM1441.17 130.223L1465.86 152.64C1452.56 167.427 1435.23 174.343 1416.71 174.343C1382.52 174.343 1354.98 148.586 1354.98 113.768C1354.98 78.9488 1382.52 52.954 1416.71 52.954C1435.23 52.954 1452.56 59.8701 1465.86 74.6561L1441.17 97.0736C1435.94 84.9109 1424.55 82.0491 1416.71 82.0491C1402.23 82.0491 1390.12 94.9273 1390.12 113.768C1390.12 132.369 1402.23 145.247 1416.71 145.247C1424.55 145.247 1436.18 143.101 1441.17 130.223ZM1522.22 122.353C1522.22 130.938 1521.98 145.247 1535.04 145.247C1541.45 145.247 1545.49 142.624 1550 139.285V168.38C1544.54 171.481 1537.89 174.343 1530.77 174.343C1500.62 174.343 1487.08 161.464 1487.08 122.353V83.7185H1474.02V54.6234H1487.08V20.7587H1522.22V54.6234H1550V83.7185H1522.22V122.353Z" fill="#222831"/>
</g>
<defs>
<clipPath id="clip0_1_2">
<rect width="1550" height="181" fill="white"/>
</clipPath>
</defs>
</svg>
